<?xml version="1.0" encoding="iso-8859-1"?>
<!-- Uploaded to: SVG Repo, www.svgrepo.com, Generator: SVG Repo Mixer Tools -->
<svg height="800px" width="800px" version="1.1" id="Capa_1" xmlns="http://www.w3.org/2000/svg" xmlns:xlink="http://www.w3.org/1999/xlink" 
	 viewBox="0 0 270.142 270.142" xml:space="preserve">
<g>
	<g>
		<path style="fill:#010002;" d="M250.382,15.084C226.874-3.778,191.531,3.793,190.035,4.13c-2.491,0.555-4.259,2.758-4.259,5.309
			v197.547c-6.358-6.114-14.974-9.899-24.476-9.899h-19.037c-19.494,0-35.354,15.86-35.354,35.354s15.86,35.354,35.354,35.354
			h19.037c19.494,0,35.354-15.86,35.354-35.354V69.268h68.048c3.002,0,5.439-2.437,5.439-5.439
			C270.142,42.002,263.49,25.598,250.382,15.084z M161.301,256.916h-19.037c-13.494,0-24.476-10.981-24.476-24.476
			s10.981-24.476,24.476-24.476h19.037c13.494,0,24.476,10.981,24.476,24.476S174.795,256.916,161.301,256.916z M196.655,58.39
			V14.045c9.279-1.246,31.726-2.665,46.923,9.529c9.355,7.5,14.56,19.194,15.523,34.815H196.655z"/>
		<path style="fill:#010002;" d="M5.439,66.097h127.818c3.002,0,5.439-2.437,5.439-5.439c0-3.008-2.437-5.439-5.439-5.439H5.439
			C2.437,55.219,0,57.65,0,60.658C0,63.66,2.437,66.097,5.439,66.097z"/>
		<path style="fill:#010002;" d="M5.439,114.592h127.818c3.002,0,5.439-2.431,5.439-5.439c0-3.002-2.437-5.439-5.439-5.439H5.439
			c-3.002,0-5.439,2.437-5.439,5.439C0,112.155,2.437,114.592,5.439,114.592z"/>
		<path style="fill:#010002;" d="M138.696,159.013c0-3.002-2.437-5.439-5.439-5.439H5.439c-3.002,0-5.439,2.437-5.439,5.439
			s2.437,5.439,5.439,5.439h127.818C136.259,164.452,138.696,162.015,138.696,159.013z"/>
	</g>
</g>
</svg>